<svg width="747" height="660" viewBox="0 0 747 660" fill="none" xmlns="http://www.w3.org/2000/svg">
<path d="M147.058 636.418C134.227 658.876 105.61 666.445 83.1521 653.614C60.6939 640.784 53.1248 612.167 65.9557 589.709L99.3194 531.962C137.048 520.284 167.715 529.264 191.966 558.528L147.058 636.418Z" fill="white"/>
<path d="M471.448 510.409H46.7091C20.79 510.409 0 489.627 0 463.699C0 437.78 20.79 416.99 46.7091 416.99H165.789L318.233 152.779L270.627 70.1415C257.796 47.6833 265.365 19.3242 287.824 6.236C310.282 -6.59489 338.641 0.974172 351.729 23.4324L372.129 59.4933L392.919 23.5652C405.75 1.10697 434.366 -6.4621 456.824 6.36879C479.283 19.1997 486.852 47.816 474.021 70.2742L273.706 416.999H418.581C465.539 416.999 491.848 472.173 471.448 510.409Z" fill="white"/>
<path d="M700.238 510.665H632.747L678.302 589.709C691.133 612.167 683.564 640.526 661.106 653.615C638.648 666.445 610.288 658.876 597.2 636.418C520.464 503.354 462.849 403.777 424.614 337.432C385.474 269.933 413.451 202.185 441.039 179.212C471.705 231.822 517.518 311.256 578.726 417.247H700.246C726.165 417.247 746.955 438.037 746.955 463.956C746.947 489.875 726.157 510.665 700.238 510.665Z" fill="white"/>
</svg>
